<svg id="Layer_1" data-name="Layer 1" xmlns="http://www.w3.org/2000/svg" viewBox="0 0 495.33 124.67"><defs><style>.cls-1{fill:#fff;}.cls-2{fill:#20191a;}.cls-3{fill:#211a1b;}.cls-4{fill:#221a1b;}.cls-5{fill:#2a1b1c;}.cls-6{fill:#7c6767;}.cls-7{fill:#d16a6a;}</style></defs><title>Artboard 1</title><path class="cls-1" d="M489.67,38c-2.26,1.12-2.69,3-2.7,5-.05,11.31-.05,22.62-.07,33.93v1.55a8.36,8.36,0,0,1-4.42-2.63c-2-2.42-3.88-5-5.68-7.52-5-7.15-10-14.35-15.19-21.81-.07.63-.14,1-.14,1.3q0,11.82,0,23.63a6.11,6.11,0,0,0,2.76,5.1h-9.16a2.81,2.81,0,0,1,.42-.57c1.8-1.54,2.1-3.54,2.11-5.55q.07-13.26,0-26.52c0-2.22-.35-4.41-2.5-6.17,2.33,0,4.67,0,7,0,.22,0,.47.35.63.58q8.4,12.12,16.79,24.26c1.06,1.53,2.14,3,3.37,4.79a6,6,0,0,0,.21-.94q0-11.19,0-22.37c0-2.3-.3-4.52-2.52-6.33h9.12Z"/><path class="cls-2" d="M181.7,120.43,120.13,84.75l16.15-14.92-.17-.21-8.77,2.95q-11.24,3.78-22.47,7.58-13.37,4.53-26.71,9.09c-2.5.85-5,1.71-7.5,2.49-.76.24-1,.54-1,1.25a27.54,27.54,0,0,1-.23,3.63c-.51,3.72.94,7.18,1.81,10.71a42.44,42.44,0,0,1,1.1,5.23c-1.37-1-2.76-2-4.12-3-5.55-4.22-11.08-8.45-16.65-12.63a4.15,4.15,0,0,0-2-.79c-6.23-.52-12.47-1-18.71-1.46-5.32-.41-10.64-.82-16-1.5l12.75-2c2.83-.45,5.64-1.08,8.5-1.27,4-.27,8-.21,12-.24a2.8,2.8,0,0,1,1.24.55c3.37,2.07,6.73,4.16,10.23,6.32.49-.64,1-1.23,1.42-1.85,2.25-3.07,4.43-6.17,6.75-9.19a4.85,4.85,0,0,1,2.25-1.57c7-2.26,14.12-4.41,21.18-6.62,6.83-2.15,13.65-4.34,20.49-6.48,7.06-2.22,14.13-4.4,21.2-6.6,3.15-1,6.28-2,9.45-3,.52-.15,1.56-.15,1.7.09.51.82,1.94,1.38,1.09,2.68-2.54,3.87-4.8,7.9-7.6,11.63-2,2.69-1.49,5.5-1.59,8.34,0,.27.4.64.73.83q9.18,5.39,18.4,10.74c4.35,2.51,8.74,5,13.12,7.45.19.11.4.19.71.34A13.14,13.14,0,0,0,167,94c-3.17-4.93-6-10-9-15.07a4.51,4.51,0,0,1-.11-.71c1.65,2,3.08,3.69,4.48,5.41,4.23,5.17,8.51,10.32,12.65,15.55a10.89,10.89,0,0,1,1.66,3.65c1.7,5.61,3.31,11.23,4.95,16.85A3.84,3.84,0,0,1,181.7,120.43Z"/><path class="cls-1" d="M53.13,14.22l7.77,2.51,1.43.45-4.77,7.71,14.09,3.28L64.56,40,38.11,10.22,44.53,9c7-1.38,14-2.73,21-4.14a4.1,4.1,0,0,1,3.08.47C76.27,9.57,84,13.78,91.74,18c8.12,4.48,16.21,9,24.36,13.46a4.1,4.1,0,0,0,2.51.36c7.35-1.66,14.67-3.41,22-5.14,6.12-1.44,12.24-2.93,18.38-4.32a7.08,7.08,0,0,1,3,0c10,2.47,19.91,5,29.85,7.52.77.2,1.49.51,2.23.77a4.38,4.38,0,0,1-1.22.23c-1.94-.14-3.87-.35-5.81-.51L171.6,29.16l-7.19-.68c-3.49-.34-6.67.7-9.92,1.58-5.37,1.45-10.82,2.69-16.23,4.05q-9.33,2.34-18.65,4.74a3.66,3.66,0,0,1-3-.38c-5-3-10.15-6-15.24-8.93s-10.17-5.87-15.27-8.78c-5.82-3.34-11.69-6.62-17.48-10a4.46,4.46,0,0,0-3.36-.53c-2.07.41-4.15.75-6.22,1.11l-9.86,1.71-.11.35Z"/><path class="cls-1" d="M238.92,78.16c-5.45-2.48-6.5-7.13-7.75-11.72q-2.52-9.27-5.21-18.5c-.75-2.58-1.67-5.13-2.66-7.65a14,14,0,0,0-1.73-2.52h7c2.88,10.33,5.75,20.58,8.61,30.82l.26.06a8,8,0,0,0,.39-.91c2.19-8.19,4.4-16.37,6.53-24.57a5,5,0,0,0-1.71-5.42h7.26c.35,6.17,2.83,11.88,4.3,17.78,1,4,2.24,8,3.39,12.07a11.44,11.44,0,0,0,.52,1.21c1.49-5.44,2.93-10.64,4.33-15.84.83-3.08,1.62-6.16,2.39-9.25.56-2.26.33-4.34-2.39-5.94h8.12c-3.66,13.56-7.3,27-11,40.56a13.49,13.49,0,0,1-6.76-8.55c-1.68-6.59-3.64-13.13-5.49-19.68a6.83,6.83,0,0,0-.52-1C244.12,59.1,241.5,68.71,238.92,78.16Z"/><path class="cls-1" d="M379.31,56.83a23.35,23.35,0,0,1-5.27,14,18,18,0,0,1-13.66,6.71,17.71,17.71,0,0,1-13.18-5c-8-7.58-8.44-20.91-1.53-29.22a18.9,18.9,0,0,1,22.91-4.75,18,18,0,0,1,9.11,10.71A63.12,63.12,0,0,1,379.31,56.83Zm-32.53-.16a19.74,19.74,0,0,0,4.45,12.4,11.92,11.92,0,0,0,18,.11,15.84,15.84,0,0,0,3.65-9.47,20.67,20.67,0,0,0-3.34-13.49c-4.8-7.1-14.9-6.62-19.62-.27C347.61,49.1,346.88,52.67,346.78,56.67Z"/><path class="cls-1" d="M412.22,78.49a10.3,10.3,0,0,1-5.35-3.67c-3.73-5.11-7.33-10.28-10.95-15.44-2.71-3.87-5.38-7.77-8.08-11.65-.24-.34-.51-.66-1-1.25-.05.68-.11,1.07-.11,1.46,0,7.58,0,15.17,0,22.75,0,2.16.44,4.26,2.92,5.83h-9.59c2.91-2.08,2.85-4.79,2.84-7.53q0-12,0-24c0-3,.1-4.35-2.59-7.28,2.37,0,4.62,0,6.88,0a1.31,1.31,0,0,1,.84.52Q395,48.28,402,58.36c2,2.92,4.07,5.84,6.27,9a7.71,7.71,0,0,0,.18-1c0-7.72,0-15.43,0-23.14a6.22,6.22,0,0,0-2.83-5.47H415c-3,2.32-2.77,5.29-2.77,8.2C412.23,56.72,412.22,67.49,412.22,78.49Z"/><path class="cls-1" d="M13.4,71.73l1.13,5.77-.22.12L2.69,63.4,7.25,64c4.39.65,8.77,1.31,13.16,2,5.19.75,10.38,1.51,15.57,2.22a2.85,2.85,0,0,0,1.46-.34c13.05-6.12,26.11-12.22,39.11-18.42a4,4,0,0,1,4.82.41c3.36,2.47,7,4.65,10.56,6.9a3.55,3.55,0,0,0,1.72.45c2.8,0,5.6,0,8.39,0,.48,0,1.19-.1.48.61l-.2.28,0,0-.58.28h0a2.66,2.66,0,0,0-.82.14c-1.78,1-3.64,2-5.3,3.1s-2.86,1.56-4.82.29c-3.43-2.21-7.12-4.13-10.76-6.07-1-.52-1.78-1.65-3.39-.9-5.18,2.41-10.42,4.7-15.62,7.07-6.5,3-13,6-19.47,8.95l-13,0a9.21,9.21,0,0,0-1.37.19L12.36,68Z"/><path class="cls-3" d="M171.6,29.16l15.48,1.28c1.94.16,3.87.37,5.81.51a4.38,4.38,0,0,0,1.22-.23c.6.75-.1.73-.62.75-1.73.09-3.46.19-5.2.22-7.14.11-14.28.19-21.41.3-2.66.05-5.33,0-7.95.29a41.75,41.75,0,0,0-5.79,1.41L135.4,38.27c-5.5,1.43-11,2.88-16.5,4.27a2.58,2.58,0,0,1-1.67-.2q-16.32-9.27-32.59-18.61Q76.41,19,68.15,14.32a3,3,0,0,0-1.43-.44c-4.53.09-9.06.22-13.59.34l-4.07-.82.11-.35L59,11.34c2.07-.36,4.15-.7,6.22-1.11a4.46,4.46,0,0,1,3.36.53c5.79,3.38,11.66,6.66,17.48,10q7.65,4.36,15.27,8.78c5.09,3,10.19,5.91,15.24,8.93a3.66,3.66,0,0,0,3,.38q9.31-2.41,18.65-4.74c5.41-1.36,10.86-2.6,16.23-4.05,3.25-.88,6.43-1.92,9.92-1.58Z"/><path class="cls-1" d="M306.16,44.68a11.11,11.11,0,0,0-8.44-3.54c-2.64.08-4.82.83-5.89,3.08a4.73,4.73,0,0,0,1.49,6.22c2.49,1.85,5.38,3.3,8.09,4.94,1.25.76,2.51,1.53,3.69,2.38,5.69,4,4.89,10.6,1.5,14.69-3.26,3.93-7.75,5.61-13.28,5-2.07-.23-4.11-.72-6.15-1.14a1.78,1.78,0,0,1-1.53-1.6c-.34-2-.75-4-1.09-5.78a66.51,66.51,0,0,0,6.62,3.5,10.27,10.27,0,0,0,8.07.1c5.14-2.24,5.28-7.79,1-10.68-2.86-1.94-6.1-3.44-9.1-5.24-6.06-3.65-7.72-10.27-3.86-15.45,2.12-2.85,5.47-4,9.18-4.3a21,21,0,0,1,9.66,1.21Z"/><path class="cls-1" d="M437.37,38.08v6.55a12.18,12.18,0,0,0-6-3.26c-3.85-.69-7,.28-8.27,2.73-1.35,2.61-.26,5.66,2.87,7.56,2.91,1.76,5.95,3.35,8.89,5.07,9.29,5.45,5.65,15.32-.73,18.88a14.88,14.88,0,0,1-9.46,1.85c-2.11-.28-4.21-.71-6.28-1.18a2,2,0,0,1-1.31-1c-.54-2.18-.92-4.4-1.4-6.87a18.17,18.17,0,0,0,9.85,4.75c3.4.44,7-1,8.39-3.65,1.33-2.48.32-6-2.5-7.73s-6.11-3.44-9.1-5.24c-6.07-3.68-7.67-10.49-3.63-15.58,2.14-2.7,5.41-3.83,9-4.1A21.12,21.12,0,0,1,437.37,38.08Z"/><path class="cls-1" d="M341.62,68.89c-.86,2.27-1.56,4.35-2.47,6.35a3.3,3.3,0,0,1-1.81,1.27c-8.55,2.91-19.65,0-23.81-8.51a24.7,24.7,0,0,1-1.71-16.93,18.67,18.67,0,0,1,5.76-10c4-3.57,9-4.69,14.52-4.13A53.35,53.35,0,0,1,338,38c.38.08.93.53.94.82.09,2,.05,4,.05,5.87-2.17-.85-4.26-1.82-6.46-2.51a11.41,11.41,0,0,0-13.21,5.33,18.5,18.5,0,0,0-1.83,12.08,16.75,16.75,0,0,0,3.92,8.83c3.14,3.66,7.4,5,12.53,3.71a25.72,25.72,0,0,0,3.86-1.29C339,70.32,340.17,69.64,341.62,68.89Z"/><path class="cls-4" d="M41.6,70.94c6.49-3,13-6,19.47-8.95,5.2-2.37,10.44-4.66,15.62-7.07,1.61-.75,2.41.38,3.39.9,3.64,1.94,7.33,3.86,10.76,6.07,2,1.27,3.21.82,4.82-.29s3.52-2.09,5.3-3.1a2.66,2.66,0,0,1,.82-.14c-1.13,1.06-2.22,2.14-3.41,3.16-2.33,2-4.74,3.93-7.06,5.94a1.24,1.24,0,0,1-1.72.08c-4.19-2.5-8.42-5-12.6-7.49a2,2,0,0,0-2.1-.07Q59.62,66.83,44.35,73.64a9.2,9.2,0,0,1-4.79,1,21.88,21.88,0,0,0-3.62,0c-6.29.48-12.3-.85-18.34-2.07l-4.2-.86c-.34-1.21-.67-2.42-1-3.77l14.92,3.2,13.41.06A3.18,3.18,0,0,0,41.6,70.94Z"/><path class="cls-1" d="M451.72,76.57h-9.27c2.26-1.91,2.16-4.24,2.16-6.58,0-9.08,0-18.16,0-27.25a6.13,6.13,0,0,0-2.17-5h9.75c-2.58,2.24-2.11,5-2.13,7.67-.06,7.87,0,15.74,0,23.61a16.83,16.83,0,0,0,.18,3.76A25,25,0,0,0,451.72,76.57Z"/><path class="cls-1" d="M281.76,76.59h-9.22c2.63-2.71,2-5.9,2-9q.07-11.37,0-22.74a16.67,16.67,0,0,0-.34-4.12,13.37,13.37,0,0,0-1.59-3h9.54C279.86,39.6,280,42,280,44.28q-.06,12.94,0,25.88a12.5,12.5,0,0,0,.29,3.24A21.1,21.1,0,0,0,281.76,76.59Z"/><path class="cls-1" d="M421.75,90.67c0,2-.05,3.93,0,5.89,0,1.15-.67,2.62,1.73,3-1.48.67-2.8.36-4.07.41a2.32,2.32,0,0,1,.15-.8c.28-.52.88-1,.93-1.51.24-2.63.36-5.26.51-7.89.06-1,0-1.87-1.41-2.11-.11,0-.17-.25-.35-.54h3.66q1.86,4.49,3.74,9H427c1.12-2.54,2.27-5.07,3.33-7.63.63-1.55,2.26-2,4.33-1-2.44.27-1.88,1.73-1.88,3,0,2.43,0,4.86.15,7.28,0,.49.63.95,1,1.43l.4.54c-.19.09-.37.26-.57.27-1.38,0-2.76,0-4.21,0,0-.29,0-.57,0-.59,1.51-.42,1.17-1.51,1.18-2.45,0-2,0-3.92,0-5.88l-.39-.09-4.18,9.57c-1.44-3.5-2.75-6.7-4.06-9.9Z"/><path class="cls-1" d="M331.07,99.48c2.24-.35,1.7-1.72,1.71-2.86,0-2.22,0-4.44,0-6.66,0-1,0-1.85-1.35-2.18-.19,0-.29-.35-.44-.57,2.62-.57,3.19-.33,4.51,1.37,1.9,2.44,3.9,4.81,5.86,7.21l.45-.06c-.13-2.47-.21-4.93-.47-7.39,0-.35-.9-.65-1.73-1.2h4.53c0,.15.07.29,0,.31-1.56.68-1.44,2-1.44,3.17,0,2.81,0,5.61,0,8.42v1.21l-.47.21-8.15-10.11a5.4,5.4,0,0,0-.2,1c0,2.18.06,4.35.12,6.53,0,.63.09,1.27,1.09,1.37a.4.4,0,0,1,0,.79c-1.26,0-2.53,0-3.79,0Z"/><path class="cls-1" d="M362.11,94.93c-2,1.2-1.11,2.79-1,4.46a9.85,9.85,0,0,1-7.19.35,5.94,5.94,0,0,1-4.06-5.49c-.29-3.47,1.54-6.37,4.92-7.11,1.67-.37,3.57.06,5.36.14.17,0,.46.12.47.21.15,1.06.25,2.13.36,3.19l-.52.07c-.1-.21-.24-.4-.32-.61-.92-2.53-4-3.12-6.13-1.24-2.35,2-2.16,8.41.74,9.65a13.14,13.14,0,0,0,3.14.59.78.78,0,0,0,.56-.32c.73-.94.06-2.87-1.09-3.32-.21-.08-.35-.3-.52-.46.21-.13.41-.37.62-.38,1.47,0,2.95,0,4.42,0Z"/><path class="cls-1" d="M395.94,90.92V95.8c-1.55-1.9-1.55-1.9-3.66-1.7,0,1.23-.06,2.47,0,3.71.07,1,1.89,1.57,3.47,1a5.13,5.13,0,0,0,1.55-1.21,5.37,5.37,0,0,0,.63-1A2.24,2.24,0,0,1,395.8,100h-7.33l-.15-.31,1.69-.92c0-3.08.06-6.42-.05-9.75,0-.59-.73-1.17-1.23-1.9A6.73,6.73,0,0,1,389.8,87c1.88,0,3.77.07,5.64,0,1.38-.08,1.78.47,1.77,1.51v1.58l-.42.09a4.2,4.2,0,0,0-.53-1,3.44,3.44,0,0,0-1.28-1c-2.06-.67-2.69-.27-2.69,1.6v3C394.62,93.05,394.62,93.05,395.94,90.92Z"/><path class="cls-1" d="M277.07,100c.05-.37,0-.66.1-.67,1.52-.31,1.29-1.39,1.3-2.3,0-2.34,0-4.69,0-7,0-1,.11-2.11-1.24-2.85h8.15v3c-.77-1.82-2.17-2.56-4.48-2v4.63c2.18.39,2.19.38,3.76-1.72v4.82c-1.52-1.9-1.52-1.9-3.89-1.78,0,1.47,0,3,0,4.44,0,.25.63.47,1,.7l.68.47a2.59,2.59,0,0,1-.81.35C280.19,100,278.7,100,277.07,100Z"/><path class="cls-1" d="M409.52,99.57,410.6,99c-.17-.62-.33-1.23-.51-1.83-.61-2-.63-2.07-3-1.87A1.55,1.55,0,0,0,406,96a22.85,22.85,0,0,0-.81,2.77l1.12.91a8.83,8.83,0,0,1-1.4.32,10.61,10.61,0,0,1-2.62-.16c2.52-1.39,2.32-3.78,3.15-5.71s1.33-3.92,2.09-5.85c.22-.57.84-1,1.53-1.81l1.19,3.8c.78,2.46,1.55,4.91,2.34,7.36.23.7.28,1.53,1.46,1.62.11,0,.17.41.25.64h-4.72Zm-1.48-9-.28,0-1.21,3.63h2.68Z"/><path class="cls-1" d="M376.23,88.08c-2.13-.46-3.44.23-4.17,1.92l-.4-.23c.19-1.12.39-2.23.61-3.43,1.41.91,9.33.91,11.06,0l-.46,4.12c-1.43-2.52-1.52-2.57-4.11-2.38a6.72,6.72,0,0,0-.13.93c0,2.94,0,5.87,0,8.8,0,.69,0,1.38,1.11,1.43.17,0,.32.3.48.46-.22.12-.43.33-.64.34-1.45,0-2.89,0-4.34,0-.25,0-.48-.27-.72-.42.18-.16.35-.45.54-.47,1.14-.07,1.2-.68,1.19-1.47C376.21,94.46,376.23,91.29,376.23,88.08Z"/><path class="cls-1" d="M313.19,100c-1.75,0-3.49,0-5.23,0-.11,0-.33-.25-.31-.34s.25-.43.38-.43c1.15,0,1.24-.81,1.19-1.41a24.86,24.86,0,0,0-.71-4.52,14.56,14.56,0,0,0-1.58-3.46,24.43,24.43,0,0,0-2.11-2.68h4.66l.3.38-1.24.54c.76,1.76,1.47,3.39,2.33,5.39l2.56-5.26-1.52-1h4.21c-3.35,3.21-5.08,6.85-4.59,11.18,0,.29.56.57.9.8a3.79,3.79,0,0,0,.8.3Z"/><path class="cls-1" d="M291.11,87.16h5.06c-2,.87-1.4,2.36-1.42,3.66,0,2.05,0,4.1,0,6.15,0,.85,0,1.69,1.28,1.92,1.58.29,2.78-.06,3.4-1,.23-.36.45-.73.67-1.1l.5.14c-.26,1-.49,1.93-.8,2.87,0,.13-.48.23-.73.23-2.65,0-5.29,0-8.17,0,.2-.37.31-.77.45-.78,1.29-.1,1.2-.88,1.19-1.65,0-2.39,0-4.77,0-7.16,0-1.17.53-2.56-1.7-3Z"/><path class="cls-5" d="M179.19,48.41l19.23-10.07,2.31,2.48c-7.24,2.65-14.15,5.62-21.37,8Z"/><path class="cls-1" d="M325.66,87.07c0,.28,0,.5,0,.52-1.85.51-1.38,1.84-1.39,3,0,2.3,0,4.61,0,6.91,0,.76-.15,1.57,1.11,1.74.13,0,.21.31.31.48-.23.1-.46.3-.7.3-1.39,0-2.78,0-4.38,0,.16-.4.2-.81.37-.85,1.18-.33,1.09-1.22,1.11-2,.06-2.47.06-4.95,0-7.42,0-.76.2-1.73-1.15-2-.13,0-.18-.4-.31-.72Z"/><path class="cls-4" d="M101.77,58.37l.58-.28Z"/><path class="cls-4" d="M102.32,58.11l.2-.28Z"/><path class="cls-6" d="M171.6,29.16l-7.19-.68Z"/><path class="cls-7" d="M41.6,70.94a3.18,3.18,0,0,1-.91.28l-13.41-.06A8.9,8.9,0,0,1,28.64,71Z"/><path class="cls-1" d="M408,90.53l1.19,3.65h-2.68l1.21-3.63Z"/></svg>