<svg id="Layer_1" data-name="Layer 1" xmlns="http://www.w3.org/2000/svg" viewBox="0 0 300 300"><defs><style>.cls-1{fill:#084888;}.cls-2{fill:#f2f2f2;}</style></defs><title>Artboard 1</title><path class="cls-1" d="M247.83,158.91a97.4,97.4,0,0,0-72.16-80.37l-11-26.67,28-16.75h-34l-8-30.62-8.94,30.62h-32L136.18,53.8l-7.11,24.36a97.38,97.38,0,0,0-73.78,80.75H27.07v26.76H55.13a97.27,97.27,0,0,0,83.05,83.49v27.27h26.76V269.16A97.28,97.28,0,0,0,248,185.67h27.36V158.91ZM150.38,38.21a9.55,9.55,0,1,1-9.55,9.55A9.55,9.55,0,0,1,150.38,38.21Zm1.18,37.23a97.43,97.43,0,0,0-15.95,1.38l14.78-13,18.82,13.25A97.7,97.7,0,0,0,151.56,75.44Z"/><path class="cls-2" d="M196.37,213.81V157.74L209,143.53l-7.78-6.88-4.8,5.42V124.13H186v29.68l-23.86,26.95L97.12,118l-7.22,7.47,65.34,63.07L116.42,232.4l7.78,6.89,38.52-43.52L189.9,222l4.89-5.07h1.58v-1.64l.74-.77ZM186,169.48v34.3L169.61,188Z"/></svg>