<svg id="Layer_1" data-name="Layer 1" xmlns="http://www.w3.org/2000/svg" viewBox="-100 -50 739.33 294.67">
    <defs>
        <style>.cls-1{fill:#c42026;}.cls-2{fill:#282728;}.cls-3{fill:#dbdfe1;stroke:#282728;stroke-miterlimit:10;stroke-width:9px;}.cls-4{fill:#c10230;}.cls-5{fill:#231f20;}</style>
		<filter id="shadow" x="-50%" y="-50%" width="200%" height="200%">
			<feDropShadow dx="0" dy="0" stdDeviation="35" flood-color="#ffffff" flood-opacity="1" />
			<feDropShadow dx="0" dy="0" stdDeviation="35" flood-color="#ffffff" flood-opacity=".5" />
		</filter>
    </defs>
    <title>v6_outline</title>
	<g id="logo" filter="url(#shadow)">
	    <g id="Airplane">
	        <path class="cls-1" d="M315.2,97.41c-2.49,0-7.76-.25-10.56-.25.88-4.79.8-8.31,1.58-14.65.93-8.7,1.14-18.54,3.42-18.61C311.92,64.05,314.37,92.59,315.2,97.41Z" />
	        <path class="cls-1" d="M338.68,121.94v-6.3l36,2.3v1.81Z" />
	        <path class="cls-1" d="M279.84,117.63v5.18l-33.51-2.15v-1.45c5.52-.53,11-1.26,16.52-1.53S274,117.63,279.84,117.63Z" />
	        <g id="Wisconsin">
	            <path class="cls-2" d="M383.14,149.17,365,114.24v34.93h-8V95.3h8.2l18.1,36.48V95.3h8v53.87Z" />
	            <path class="cls-2" d="M415.48,150c-11.16,0-17.05-5-17.05-13.32a15.69,15.69,0,0,1,.91-5.61l8.56-.36a13.62,13.62,0,0,0-.63,4.35c0,6.18,3.23,8.14,8.28,8.14,6,0,8.84-2.74,8.84-8.42,0-3.71-1.62-6.59-9.33-9.75l-7.23-3c-5-2.11-8.77-6.39-8.77-12.42,0-8.77,5.26-15.15,16.42-15.15,9.12,0,15.29,5.26,15.29,13a16.77,16.77,0,0,1-.84,4.77l-8.21.28a11.74,11.74,0,0,0,.56-3.65c0-5-2.31-7.79-7.57-7.79-4.84,0-7.09,2.81-7.09,6.6s.91,5.19,7.58,8.13l8.06,3.58c6.95,3.09,10.17,7.51,10.17,13.89C433.43,144.4,427.61,150,415.48,150Z" />
	            <path class="cls-2" d="M440.17,149.17V95.3H449v53.87Z" />
	            <path class="cls-2" d="M485.62,149.17l-18.1-34.93v34.93h-8V95.3h8.2l18.1,36.48V95.3h8v53.87Z" />
	            <path class="cls-2" d="M157.54,149.17h-8.21l-7.51-35.07-8,35.07h-8.14L114.61,95.3h8.91l6.8,36.34,7.23-36.34h8.62l7.09,36.34L160.2,95.3h8.35Z" />
	            <path class="cls-2" d="M175.21,149.17V95.3h8.84v53.87Z" />
	            <path class="cls-2" d="M208.18,150c-11.15,0-17.05-5-17.05-13.32a15.69,15.69,0,0,1,.92-5.61l8.55-.36a13.62,13.62,0,0,0-.63,4.35c0,6.18,3.23,8.14,8.28,8.14,6,0,8.84-2.74,8.84-8.42,0-3.71-1.61-6.59-9.33-9.75l-7.23-3c-5-2.11-8.76-6.39-8.76-12.42,0-8.77,5.26-15.15,16.41-15.15,9.12,0,15.29,5.26,15.29,13a16.77,16.77,0,0,1-.84,4.77l-8.21.28a11.74,11.74,0,0,0,.56-3.65c0-5-2.31-7.79-7.57-7.79-4.84,0-7.09,2.81-7.09,6.6s.92,5.19,7.58,8.13l8.07,3.58c6.94,3.09,10.17,7.51,10.17,13.89C226.14,144.4,220.32,150,208.18,150Z" />
	            <path class="cls-2" d="M250.34,150c-14,0-20.63-6.73-20.63-26.79,0-20.9,6.81-28.76,20-28.76,15.37,0,18.52,9.05,17.89,20.69l-9,.63c.77-10.94-2.66-14.45-8.55-14.45-7.72,0-10.81,4.91-10.81,21.33S243.11,143,250.41,143c9.47,0,9-8.77,8.62-16.41l8.91.84C269.06,142,264.15,150,250.34,150Z" />
	        </g>
	        <path class="cls-1" d="M293.7,147.12c-40.07-1.35-201.48-7.41-207.14,1.29-1.71,2.9,200.68,6.65,204,6.51a.76.76,0,0,0,.62-.41c1.37-2.66,1.68-3.69,3.09-6.3A.73.73,0,0,0,293.7,147.12Z" />
	        <path class="cls-1" d="M324.25,147.12c40.07-1.35,201.48-7.41,207.14,1.29,1.71,2.9-200.68,6.65-204,6.51a.76.76,0,0,1-.62-.41c-1.37-2.66-1.68-3.69-3.09-6.3A.73.73,0,0,1,324.25,147.12Z" />
	        <circle class="cls-3" cx="310.67" cy="127.2" r="28.06" />
	        <path class="cls-2" d="M360.17,72.9c-3,1.48-5.78,4.16-8.27,6.42-7.66,6.94-14.93,14.5-22.18,21.79q-3.59,3.6-7.13,7.23c-2.15,2.2-6.84,5.91-6.84,5.91S297.89,133.39,298,133.52c-5,3.92-8,6.44-11.76,9.95-4.73,4.38-10,9.48-14.75,13.87a95.17,95.17,0,0,0-10.24,10.73c-2.46,3.11-4.82,6.59-5.05,10.65a2.94,2.94,0,0,0,1.89,3c2.68,1,5.91-1.59,7.83-3.18,4.46-3.71,8.79-7.24,13.2-11.32,4.55-4.58,9.13-9.19,13.45-14l1.37-1.54c3.62-4.17,6.92-8.59,10.5-12.8.11-.13,18.26-18.38,18.26-18.38s3.71-2.78,4.27-3.17c1.92-1.36,3.8-2.79,5.64-4.25,3.58-2.84,7.09-5.88,10.5-8.85A142.22,142.22,0,0,0,356.71,91c3.66-4.16,7.2-8.93,8.36-14.42C365.72,73.47,363.1,71.48,360.17,72.9Z" />
	        <circle class="cls-1" cx="310.39" cy="126.98" r="10.71" />
	        <circle class="cls-2" cx="310.14" cy="126.49" r="4.99" />
	    </g>
	    <path class="cls-4" d="M26.57,71.3c-11.44,0-17.49-5.18-17.49-13.68A16.31,16.31,0,0,1,10,51.86l8.79-.36A14,14,0,0,0,18.15,56c0,6.34,3.31,8.36,8.5,8.36,6.12,0,9.07-2.81,9.07-8.64,0-3.82-1.66-6.77-9.58-10l-7.41-3.1c-5.12-2.16-9-6.55-9-12.74,0-9,5.4-15.56,16.84-15.56,9.37,0,15.7,5.4,15.7,13.32a17.08,17.08,0,0,1-.86,4.9L33,32.78A12,12,0,0,0,33.56,29c0-5.18-2.38-8-7.78-8-5,0-7.27,2.88-7.27,6.77s.94,5.33,7.78,8.35l8.28,3.67C41.7,43,45,47.54,45,54.09,45,65.54,39,71.3,26.57,71.3Z" />
	    <path class="cls-4" d="M79.28,70.44l-3-12.1h-17l-2.88,12.1H47.6l14.25-55.3h12L88.5,70.44ZM67.54,23.85,61.28,50.78h13Z" />
	    <path class="cls-4" d="M104,22.48V39.4h19v7.35H104V70.44H95V15.14h29.6v7.34Z" />
	    <path class="cls-4" d="M132.2,70.44V15.14h30.38v7.34H141.27V38.32h19.37v7.35H141.27V63.09h23v7.35Z" />
	    <path class="cls-4" d="M188.86,71.3c-14.33,0-21.17-6.91-21.17-27.51,0-21.45,7-29.52,20.52-29.52,15.77,0,19,9.29,18.36,21.24l-9.28.65c.79-11.23-2.74-14.83-8.79-14.83-7.92,0-11.09,5-11.09,21.89s4,20.88,11.52,20.88c9.72,0,9.29-9,8.86-16.85l9.14.87C208.09,63,203.05,71.3,188.86,71.3Z" />
	    <path class="cls-4" d="M233.36,71.3C219.75,71.3,212,64.6,212,42.71c0-20.88,8.64-28.44,21.39-28.44,12.45,0,21.45,7.49,21.45,28.44C254.81,64.89,246.68,71.3,233.36,71.3Zm0-50c-7.2,0-11.74,4.17-11.74,21.6,0,17.86,4.25,21.31,11.74,21.31,6.69,0,11.81-3.53,11.81-21.31C245.17,25.29,239.91,21.26,233.36,21.26Z" />
	    <path class="cls-4" d="M289.16,70.44,270.58,34.58V70.44h-8.21V15.14h8.43l18.57,37.44V15.14h8.21v55.3Z" />
	    <path class="cls-2" d="M321.63,70.2v-6c7.11-5.22,14.58-12.28,14.58-18.31,0-4.19-1.76-6.21-4.64-6.21s-4.32,2.43-4.32,6.16a44.34,44.34,0,0,0,.45,5.27h-5.35a45.24,45.24,0,0,1-.54-6.35c0-5.49,3.46-9.67,9.72-9.67,7.06,0,10.62,3.33,10.62,10.93,0,7.34-7.7,13.59-15.3,19.13h15.39v5Z" />
	    <path class="cls-2" d="M357,70.74c-7.11,0-10.53-3-10.53-16.16,0-15.16,2.61-19.48,10.53-19.48,7.47,0,10.62,4.23,10.62,19.39C367.66,67.59,363.93,70.74,357,70.74Zm0-31.46c-3.47,0-4.82,2.12-4.82,14,0,10.3,1,13.18,4.77,13.18,3.47,0,4.86-2.88,4.86-13.18C361.9,41.31,360.33,39.28,357.09,39.28Z" />
	    <path class="cls-2" d="M379.14,70.2V44.77a21.31,21.31,0,0,1-4,.45,32.5,32.5,0,0,1-3.83-.18V41.85a11.59,11.59,0,0,0,6.66-2,8.05,8.05,0,0,0,3.42-4.23h3.24V70.2Z" />
	    <path class="cls-2" d="M401.64,70.74c-6.12,0-9.23-3.11-9.23-7.7a11.28,11.28,0,0,1,.18-2.65l5.22-.23c0,.59-.09,1.35-.09,2,0,3.11,1.4,4.41,4,4.41,3.29,0,5.27-1.93,5.27-7.83,0-1.08-.09-3.46-.18-4.23-1.35,2.7-4,3.69-6.66,3.69-4.77,0-8.91-2.38-8.91-11.47,0-8.1,3.91-11.61,10.26-11.61,7.29,0,10.84,4.63,10.84,17.86C412.39,67.09,409,70.74,401.64,70.74Zm.13-31.46c-3.24,0-4.72,2.43-4.72,7.52,0,4.59,1.26,6.75,4.72,6.75s4.82-2.12,4.82-6.75C406.59,41.67,405.06,39.28,401.77,39.28Z" />
	    <path class="cls-5" d="M15,112.44c-3.11,0-4.44-1.88-4.44-4.54V98.09h.73v9.75c0,2.34,1.08,3.94,3.71,3.94s3.67-1.64,3.67-3.94V98.09h.75v9.81C19.44,110.56,18.07,112.44,15,112.44Z" />
	    <path class="cls-5" d="M30.88,104.54v7.7h-.7v-7.59c0-1.91-.77-2.8-2.28-2.8s-2.78,1-3.78,2.46v7.93h-.7V101.45H24l.08,2A4.7,4.7,0,0,1,28,101.22C29.91,101.22,30.88,102.45,30.88,104.54Z" />
	    <path class="cls-5" d="M35.8,97.57a.56.56,0,0,1-.6.59.57.57,0,0,1-.58-.59A.56.56,0,0,1,35.2,97,.56.56,0,0,1,35.8,97.57Zm-.93,14.67V101.45h.7v10.79Z" />
	    <path class="cls-5" d="M41.65,112.24l-4-10.79h.8l3.59,10.16,3.47-10.16h.76l-3.75,10.79Z" />
	    <path class="cls-5" d="M55.52,107.2H48.05c.15,3.19,1.66,4.6,3.72,4.6a4.47,4.47,0,0,0,3-1.14l.38.5a4.9,4.9,0,0,1-3.36,1.28c-2.72,0-4.44-2-4.44-5.51s1.66-5.71,4.19-5.71c2.71,0,4,2.06,4,5.15C55.56,106.68,55.54,107,55.52,107.2Zm-.66-1.08c0-2.51-1-4.25-3.3-4.25-1.85,0-3.4,1.43-3.51,4.73h6.81Z" />
	    <path class="cls-5" d="M63.52,101.35l-.14.64a3.45,3.45,0,0,0-1-.12c-1.59,0-2.44,1.16-3.08,3.48v6.89h-.71V101.45h.6l0,2.57c.58-1.86,1.56-2.8,3.18-2.8A4.35,4.35,0,0,1,63.52,101.35Z" />
	    <path class="cls-5" d="M71.07,102.43l-.41.47a4.32,4.32,0,0,0-2.84-1c-1.58,0-2.7.81-2.7,2.09s.77,1.72,2.82,2.26c2.45.67,3.4,1.39,3.4,3.2s-1.51,3-3.63,3A5.44,5.44,0,0,1,64,111.07l.44-.47a4.77,4.77,0,0,0,3.29,1.2c1.66,0,2.91-.83,2.91-2.36s-.67-2-3-2.66-3.21-1.33-3.21-2.84,1.47-2.72,3.38-2.72A5,5,0,0,1,71.07,102.43Z" />
	    <path class="cls-5" d="M75.22,97.57a.56.56,0,0,1-.6.59.57.57,0,0,1-.58-.59.56.56,0,0,1,.58-.56A.56.56,0,0,1,75.22,97.57Zm-.93,14.67V101.45H75v10.79Z" />
	    <path class="cls-5" d="M81.42,112.44c-1.49,0-2.45-.89-2.45-2.67v-7.72H77.21v-.6H79V98.76l.71-.07v2.76h2.94l-.1.6H79.68v7.68c0,1.37.6,2.07,1.8,2.07a3.55,3.55,0,0,0,1.81-.52l.31.54A4.11,4.11,0,0,1,81.42,112.44Z" />
	    <path class="cls-5" d="M84.07,116.34l-.08-.56c2.16-.62,2.63-1.49,3.38-3.54H87.1l-3.83-10.79h.78l3.53,10.25L91,101.45h.77L88,112.28C87.21,114.66,86.44,115.7,84.07,116.34Z" />
	    <path class="cls-5" d="M84.94,131.69c0,3.56-1.72,5.64-4.39,5.64s-4.4-2.1-4.4-5.58,1.74-5.64,4.42-5.64S84.94,128.08,84.94,131.69Zm-8,.06c0,3.17,1.37,4.93,3.65,4.93s3.67-1.72,3.67-5-1.37-4.94-3.65-4.94S76.9,128.45,76.9,131.75Z" />
	    <path class="cls-5" d="M88.88,124.43v1.91h3l-.1.6H88.88v10.18h-.7V126.94H86.36v-.6h1.82v-2a2.44,2.44,0,0,1,2.72-2.55,5.42,5.42,0,0,1,2.46.6l-.27.56a4.88,4.88,0,0,0-2.13-.52C89.69,122.44,88.88,123,88.88,124.43Z" />
	    <path class="cls-5" d="M340.94,28.64l-.74-6.81c-.24-2.24-.52-4.9-.62-6.22L335.78,27h-.66l-3.88-11.37c-.08,1.18-.38,3.9-.6,6.06l-.68,7h-.68L330.68,15h1l3.74,11.15L339.12,15h1.06l1.44,13.65Z" />
	    <path class="cls-5" d="M351.76,28.36l-.16.48c-.82-.22-1.26-.72-1.32-1.86A3.65,3.65,0,0,1,347,28.84a2.9,2.9,0,0,1-3.16-3.08c0-2.16,1.64-3.35,4.12-3.35h2.28V21.27c0-1.76-.64-2.64-2.58-2.64a7.81,7.81,0,0,0-2.84.64l-.18-.56a7.66,7.66,0,0,1,3.06-.7c2.26,0,3.22,1.1,3.22,3.2v5.21C350.88,27.76,351.16,28.12,351.76,28.36ZM350.2,26.2V23h-2.14c-2.2,0-3.54.91-3.54,2.73A2.28,2.28,0,0,0,347,28.22,3.46,3.46,0,0,0,350.2,26.2Z" />
	    <path class="cls-5" d="M353.5,32.6l-.08-.54c2.08-.6,2.54-1.44,3.26-3.42h-.26l-3.7-10.41h.76l3.4,9.89,3.34-9.89H361l-3.64,10.45C356.52,31,355.78,32,353.5,32.6Z" />
	    <path class="cls-5" d="M370.64,28.64V16.19l-3.4,2.14-.34-.54,3.86-2.4h.56V28.64Z" />
	    <path class="cls-5" d="M381.1,18.41a3,3,0,0,1-2.68,3.16,3.06,3.06,0,0,1,3,3.39,3.72,3.72,0,0,1-4,3.88,4.61,4.61,0,0,1-3.68-1.66l.48-.4a3.88,3.88,0,0,0,3.16,1.44A3.05,3.05,0,0,0,380.74,25c0-2.13-1.3-3.06-3.22-3.06h-.8l.1-.6h.64a2.76,2.76,0,0,0,2.94-2.88,2.55,2.55,0,0,0-2.8-2.66,4.23,4.23,0,0,0-3.08,1.28l-.4-.44a4.69,4.69,0,0,1,3.52-1.46A3.17,3.17,0,0,1,381.1,18.41Z" />
	    <path class="cls-5" d="M388.72,22.06v.63h-5v-.63Z" />
	    <path class="cls-5" d="M393.32,28.64V16.19l-3.4,2.14-.34-.54,3.86-2.4H394V28.64Z" />
	    <path class="cls-5" d="M404.84,20.63c0,5.05-2.32,7.05-6.36,8.35l-.2-.56c3.54-1.14,5.62-2.92,5.86-6.86a4.09,4.09,0,0,1-3.44,2c-2.06,0-3.56-1.59-3.56-4.13s1.6-4.32,3.86-4.32C403.68,15.15,404.84,17.21,404.84,20.63Zm-.68.08c0-3.18-.9-4.94-3.12-4.94-1.94,0-3.18,1.32-3.18,3.72,0,2.2,1.14,3.48,2.92,3.48C402.22,23,403.2,22.15,404.16,20.71Z" />
	</g>
</svg>
